# xmcd
#
# Track frame offsets:
#	150
#	13844
#	37173
#	59685
#	73372
#	90245
#	107112
#	124281
#	142898
#	165837
#	192339
#	207860
#	229826
#
# Disc length: 3333 seconds
# Revision: 0
# Processed by: cddbd v1.5.2PL0 Copyright (c) Steve Scherf et al.
# Submitted via: dBpowerAMP V12.0
#
DISCID=ba0d030d
DTITLE=Paul Gabriel - What's the Chance
DYEAR=2013
DGENRE=Blues
TTITLE0=Old Time Ball
TTITLE1=Ride, Ride, Ride 
TTITLE2=What's The Chance
TTITLE3=328 Chauncy Street
TTITLE4=Baby I Wish
TTITLE5=Devils Daughter
TTITLE6=All That Time Gone
TTITLE7=C.M.C.
TTITLE8=Roomful of Blues
TTITLE9=Magic 
TTITLE10=Something You Got
TTITLE11=Fine At'Tire
TTITLE12=Spoda Be
EXTD=
EXTT0=
EXTT1=
EXTT2=
EXTT3=
EXTT4=
EXTT5=
EXTT6=
EXTT7=
EXTT8=
EXTT9=
EXTT10=
EXTT11=
EXTT12=
PLAYORDER=
